<?xml version="1.0" encoding="UTF-8"?>
<svg id="Layer_1" xmlns="http://www.w3.org/2000/svg" version="1.1" viewBox="0 0 200 21">
  <!-- Generator: Adobe Illustrator 29.2.1, SVG Export Plug-In . SVG Version: 2.1.0 Build 116)  -->
  <defs>
    <style>
      .st0 {
        fill: #fff;
      }

      .st1 {
        fill: #15225a;
      }

      .st2 {
        fill: #0373ff;
      }
    </style>
  </defs>
  <g>
    <path class="st1" d="M21.75,19.64c-.1-.09-.15-.22-.15-.38V5.23c0-.16.05-.29.15-.39s.23-.15.39-.15h1.7c.3,0,.52.14.65.41l4.16,7.76,4.21-7.76c.14-.27.36-.41.65-.41h1.68c.16,0,.29.05.39.15.1.1.15.23.15.39v14.04c0,.16-.05.28-.15.38-.1.09-.23.14-.39.14h-1.81c-.14,0-.27-.05-.37-.15-.1-.1-.15-.22-.15-.37v-9.34l-3.02,5.76c-.19.32-.43.47-.73.47h-.88c-.3,0-.55-.16-.73-.47l-3.02-5.76v9.34c0,.14-.05.27-.14.37s-.22.15-.38.15h-1.81c-.16,0-.29-.05-.39-.14Z"/>
    <path class="st1" d="M40.32,18.51c-1.09-.99-1.67-2.47-1.73-4.42-.01-.42-.02-1.03-.02-1.83s0-1.44.02-1.85c.06-1.91.65-3.38,1.77-4.4,1.12-1.02,2.63-1.53,4.53-1.53s3.41.51,4.54,1.53c1.13,1.02,1.72,2.49,1.78,4.4.03.83.04,1.45.04,1.85s-.01,1-.04,1.83c-.07,1.96-.65,3.43-1.75,4.42-1.09.99-2.62,1.49-4.57,1.49s-3.48-.5-4.57-1.49ZM47.2,16.65c.57-.58.88-1.47.93-2.66.03-.86.04-1.45.04-1.75,0-.33-.01-.91-.04-1.75-.04-1.19-.35-2.08-.93-2.66-.58-.58-1.34-.87-2.31-.87s-1.71.29-2.29.87-.88,1.47-.93,2.66c-.01.42-.02,1-.02,1.75s0,1.32.02,1.75c.04,1.19.35,2.08.92,2.66.57.58,1.33.87,2.3.87s1.73-.29,2.31-.87Z"/>
    <path class="st1" d="M54.23,19.63c-.1-.1-.15-.22-.15-.37V5.23c0-.16.05-.29.14-.39.09-.1.22-.15.38-.15h1.66c.17,0,.3.03.39.1.09.06.17.15.24.25l6.21,9.66V5.23c0-.16.05-.29.14-.39.09-.1.22-.15.38-.15h1.81c.16,0,.29.05.39.15s.15.23.15.39v14.02c0,.16-.05.29-.15.39s-.22.15-.37.15h-1.68c-.24,0-.45-.12-.63-.35l-6.19-9.45v9.27c0,.16-.05.28-.15.38-.1.09-.23.14-.39.14h-1.81c-.14,0-.27-.05-.37-.15Z"/>
    <path class="st1" d="M69.47,19.63c-.1-.1-.15-.22-.15-.37V5.23c0-.16.05-.29.14-.39.09-.1.22-.15.38-.15h1.9c.16,0,.29.05.39.15s.15.23.15.39v5.05l4.87-5.2c.19-.26.47-.39.84-.39h2.14c.11,0,.22.04.31.13.09.09.14.19.14.32,0,.1-.03.19-.09.26l-5.93,6.51,6.34,7.14c.07.09.11.18.11.28,0,.13-.05.24-.14.32-.09.09-.2.13-.31.13h-2.22c-.36,0-.64-.13-.84-.39l-5.22-5.71v5.59c0,.16-.05.28-.15.38-.1.09-.23.14-.39.14h-1.9c-.14,0-.27-.05-.37-.15Z"/>
    <path class="st1" d="M83.1,19.63c-.1-.1-.15-.22-.15-.37V5.23c0-.16.05-.29.14-.39.09-.1.22-.15.38-.15h9.49c.16,0,.29.05.39.15s.15.23.15.39v1.42c0,.16-.05.28-.15.38-.1.09-.23.14-.39.14h-7.09v3.82h6.62c.16,0,.29.05.39.14.1.09.15.22.15.38v1.34c0,.16-.05.28-.15.38-.1.09-.23.14-.39.14h-6.62v3.95h7.27c.16,0,.29.05.39.15.1.1.15.23.15.39v1.42c0,.16-.05.28-.15.38-.1.09-.23.14-.39.14h-9.66c-.14,0-.27-.05-.37-.15Z"/>
    <path class="st1" d="M100.48,19.63c-.1-.1-.15-.22-.15-.37v-4.87l-5.09-9.01c-.04-.07-.06-.15-.06-.24,0-.13.04-.24.13-.32s.19-.13.3-.13h1.92c.16,0,.29.04.4.13.11.09.19.18.25.28l3.67,6.28,3.64-6.28c.17-.27.4-.41.67-.41h1.9c.13,0,.24.04.32.13s.13.19.13.32c0,.09-.02.17-.06.24l-5.09,9.01v4.87c0,.14-.05.27-.15.37s-.23.15-.39.15h-1.96c-.14,0-.27-.05-.37-.15Z"/>
    <path class="st1" d="M110.15,9.15c-.07-.09-.1-.2-.09-.34l.58-3.64c.03-.2.1-.37.22-.5.11-.13.27-.19.47-.19h1.98c.1,0,.19.04.27.12s.12.17.12.27c0,.09-.02.19-.07.3l-1.38,3.56c-.09.17-.18.31-.28.41-.1.1-.24.15-.43.15h-1.1c-.13,0-.23-.04-.3-.13Z"/>
    <path class="st1" d="M117.76,19.42c-.92-.39-1.62-.9-2.09-1.53-.47-.63-.73-1.32-.75-2.05,0-.13.04-.24.13-.32s.19-.13.32-.13h1.92c.17,0,.3.03.4.1.09.06.18.17.27.31.14.49.47.9.99,1.23s1.22.5,2.11.5c1.02,0,1.79-.17,2.31-.51.52-.34.78-.81.78-1.41,0-.4-.13-.73-.4-.99s-.66-.48-1.19-.67c-.53-.19-1.3-.42-2.34-.69-1.7-.4-2.94-.94-3.72-1.61-.78-.67-1.18-1.62-1.18-2.86,0-.83.23-1.57.68-2.22.45-.65,1.11-1.16,1.96-1.53s1.85-.56,2.99-.56,2.2.21,3.06.63c.86.42,1.52.94,1.97,1.56.45.63.69,1.25.72,1.87,0,.13-.04.24-.13.32-.09.09-.19.13-.32.13h-2.01c-.3,0-.51-.14-.63-.41-.09-.46-.37-.84-.86-1.15-.49-.31-1.09-.46-1.81-.46-.81,0-1.44.15-1.9.45s-.69.74-.69,1.32c0,.4.12.73.35.99.23.26.59.49,1.09.69.5.2,1.21.42,2.15.67,1.27.29,2.28.61,3.03.97.75.36,1.31.81,1.67,1.36.36.55.54,1.24.54,2.09,0,.92-.26,1.72-.77,2.4s-1.23,1.2-2.16,1.56c-.93.36-1.99.54-3.2.54-1.28,0-2.38-.19-3.3-.58Z"/>
    <path class="st2" d="M130.88,18.47c-1.09-1.02-1.66-2.46-1.74-4.31-.01-.39-.02-1.02-.02-1.9s0-1.54.02-1.94c.07-1.84.66-3.27,1.76-4.3,1.1-1.03,2.63-1.54,4.58-1.54,1.28,0,2.39.22,3.34.66.95.44,1.68,1.03,2.2,1.79s.79,1.61.82,2.56v.04c0,.12-.05.21-.14.29-.09.08-.2.12-.31.12h-2.05c-.17,0-.3-.04-.39-.11-.09-.07-.16-.21-.21-.41-.23-.91-.61-1.54-1.14-1.91-.53-.37-1.24-.55-2.14-.55-2.07,0-3.15,1.16-3.24,3.47-.01.39-.02.99-.02,1.79s0,1.42.02,1.83c.09,2.32,1.17,3.47,3.24,3.47.89,0,1.61-.19,2.15-.56s.92-1.01,1.13-1.9c.04-.2.11-.34.2-.41.09-.07.23-.11.4-.11h2.05c.13,0,.24.04.33.13.09.09.13.19.12.32-.03.95-.3,1.8-.82,2.55s-1.25,1.35-2.2,1.79c-.95.44-2.06.66-3.34.66-1.98,0-3.52-.51-4.6-1.53Z"/>
    <path class="st2" d="M144.57,19.63c-.1-.1-.15-.22-.15-.37V5.21c0-.16.05-.28.15-.38.1-.09.22-.14.37-.14h2.01c.16,0,.28.05.38.14.09.09.14.22.14.38v12.01h6.84c.16,0,.29.05.39.15s.15.23.15.39v1.51c0,.16-.05.28-.15.38-.1.09-.23.14-.39.14h-9.36c-.14,0-.27-.05-.37-.15Z"/>
    <path class="st2" d="M157.96,18.51c-1.09-.99-1.67-2.47-1.72-4.42-.01-.42-.02-1.03-.02-1.83s0-1.44.02-1.85c.06-1.91.65-3.38,1.77-4.4s2.63-1.53,4.53-1.53,3.41.51,4.54,1.53,1.72,2.49,1.78,4.4c.03.83.04,1.45.04,1.85s-.01,1-.04,1.83c-.07,1.96-.65,3.43-1.75,4.42-1.09.99-2.62,1.49-4.57,1.49s-3.48-.5-4.57-1.49ZM164.84,16.65c.57-.58.88-1.47.93-2.66.03-.86.04-1.45.04-1.75,0-.33-.02-.91-.04-1.75-.04-1.19-.35-2.08-.93-2.66-.58-.58-1.34-.87-2.31-.87s-1.71.29-2.29.87c-.58.58-.88,1.47-.93,2.66-.01.42-.02,1-.02,1.75s0,1.32.02,1.75c.04,1.19.35,2.08.92,2.66s1.33.87,2.3.87,1.73-.29,2.31-.87Z"/>
    <path class="st2" d="M173.2,18.51c-1.08-.99-1.62-2.49-1.62-4.51V5.23c0-.16.05-.29.14-.39.09-.1.22-.15.38-.15h1.96c.16,0,.28.05.38.15.09.1.14.23.14.39v8.78c0,1.15.27,2.02.82,2.6.55.58,1.32.87,2.33.87s1.78-.29,2.32-.87.81-1.45.81-2.6V5.23c0-.16.05-.29.15-.39s.23-.15.39-.15h1.94c.16,0,.28.05.38.15.09.1.14.23.14.39v8.78c0,2.01-.54,3.52-1.61,4.51-1.07.99-2.58,1.49-4.52,1.49s-3.45-.5-4.53-1.49Z"/>
    <path class="st2" d="M187.24,19.63c-.1-.1-.15-.22-.15-.37V5.23c0-.16.05-.29.14-.39.09-.1.22-.15.38-.15h5.26c4.23,0,6.38,1.96,6.47,5.87.03.83.04,1.39.04,1.68,0,.27-.01.83-.04,1.66-.06,2.01-.6,3.5-1.62,4.45-1.02.96-2.6,1.43-4.74,1.43h-5.37c-.14,0-.27-.05-.37-.15ZM192.87,17.3c1.21,0,2.08-.27,2.61-.81.53-.54.81-1.43.84-2.66.03-.86.04-1.4.04-1.62,0-.23-.01-.76-.04-1.6-.03-1.18-.33-2.05-.9-2.61-.57-.56-1.46-.84-2.66-.84h-2.67v10.14h2.78Z"/>
  </g>
  <g>
    <path class="st1" d="M14.53,19.14c-1.19.19-2.93.4-3.82-.65-.43-.51-.51-1.23-.47-1.9.03-.38.09-.75.19-1.11.1-.36.3-.73.35-1.09-.02.16-1.46-.06-1.6-.09-.55-.09-1.09-.26-1.54-.59-.53-.39-.9-.98-1.08-1.61-.21-.74-.24-1.56.01-2.29.03-.09.47-1.21.5-1.19,0,0-1.68-1.25-1.68-1.25-1.17-.87-2.73-.42-3.55.71-1.04,1.45-1.11,3.53-.54,5.19.33.94.99,1.82,1.92,2.23,1.12.5,2.42.38,3.57.09.01,0,.03,0,.04,0-.07.02.65,1.47.73,1.6.79,1.28,2.13,2.17,3.57,2.57.69.19,1.45.29,2.17.25.3-.02.64-.05.9-.22.1-.07.19-.15.25-.25.02-.03.1-.38.07-.38ZM5.53,13.83c-.11.08-.25.11-.39.12-1.05.12-2.11-.31-2.58-1.3-.28-.6-.33-1.29-.23-1.94.1-.69.41-1.3,1.13-1.49.47-.12.97-.04,1.42.12.1.03.21.07.29.15.25.24.06,1.12.05,1.44h0c-.17-.2-.49-.27-.73-.16s-.39.4-.35.66c.01.09.05.18.12.24.08.08.19.11.29.12.29.03.57-.1.83-.23.04.49.17.95.31,1.42.09.29.08.65-.16.83Z"/>
    <circle class="st1" cx="10.81" cy="11.06" r="1.33"/>
    <circle class="st1" cx="15.77" cy="10.5" r=".78"/>
    <ellipse class="st1" cx="13.47" cy="13.15" rx=".27" ry=".53" transform="translate(-2.62 22.93) rotate(-75.62)"/>
    <ellipse class="st1" cx="15.53" cy="12.88" rx=".53" ry=".27" transform="translate(-3.41 5.92) rotate(-19.48)"/>
    <path class="st0" d="M6.4,5.62"/>
    <line class="st0" x1="6.4" y1="5.43" x2="6.39" y2="5.43"/>
    <path class="st2" d="M18.67,5.55c0-.06,0-.11,0-.17-.12-2.69-2.35-4.84-5.07-4.84-1.79,0-3.35.92-4.26,2.32-.48-.28-1.03-.44-1.63-.44-1.69,0-3.07,1.31-3.2,2.96h-.01s0,.08,0,.12c0,.04,0,.08,0,.12h0c.13,1.99,1.77,3.56,3.79,3.56,1.32,0,2.48-.67,3.17-1.7.34.19.74.3,1.16.3.52,0,.99-.16,1.39-.44.49.55,1.2.89,1.99.89,1.45,0,2.63-1.16,2.67-2.61h0s0-.02,0-.03c0-.01,0-.02,0-.03ZM17.4,5.47h0c-.02.99-.73,1.81-1.66,2.01.75-.33,1.27-1.07,1.29-1.93h0s0-.02,0-.03c0,0,0-.02,0-.03,0-.05,0-.09,0-.14-.09-2.03-1.65-3.67-3.64-3.9h0c2.16-.01,3.91,1.69,4.01,3.82,0,.04,0,.09,0,.13,0,0,0,.02,0,.03,0,0,0,.02,0,.03Z"/>
  </g>
</svg>