<?xml version="1.0" encoding="UTF-8"?>
<svg id="Layer_1" xmlns="http://www.w3.org/2000/svg" version="1.1" viewBox="0 0 3763.76 710.01">
  <!-- Generator: Adobe Illustrator 30.1.0, SVG Export Plug-In . SVG Version: 2.1.1 Build 109)  -->
  <defs>
    <style>
      .st0 {
        fill: #fbfced;
      }

      .st1 {
        fill: #ea8a0a;
      }

      .st2 {
        fill: #25313d;
      }
    </style>
  </defs>
  <path class="st2" d="M288.22,56.4s155.51-4.56,174.84,158.81c0,0,22.33-1.63,21.51,4.9-.82,6.53-3,22.6-3,22.6,0,0,47.65-2.45,46.29,53.91-1.36,56.36-41.66,66.44-41.66,66.44l21.24,52.55s-25.05,53.91-68.62,94.48l80.32,50.1v20.69H58.17v-20.42l81.96-49.56s-49.83-49.28-70.25-95.03l20.69-52.55s-41.66-14.16-41.66-67.25,43.57-54.18,46.83-53.64l-2.72-22.6s-3.54-5.17,20.97-4.63c0,0,10.55-150.98,174.23-158.81Z"/>
  <path class="st0" d="M364.25,342.1s-21.03-.61-30.22-1.63c-9.19-1.02-26.75.61-32.27,6.33,0,0-4.08-13.89,19.6-24.71l-26.55-50.85h-11.6l-26.55,50.85c23.69,10.82,19.6,24.71,19.6,24.71-5.51-5.72-23.08-7.35-32.27-6.33s-30.22,1.63-30.22,1.63c-54.12,57.38-30.84,130.7-30.84,130.7,45.74-36.76,106.07-34.31,106.07-34.31,0,0,60.33-2.45,106.07,34.31,0,0,23.28-73.31-30.84-130.7Z"/>
  <path class="st0" d="M289.02,458.91c-73.84,0-99.34,32.27-99.34,32.27,35.12,66.78,99.34,61.47,99.34,61.47,0,0,64.21,5.31,99.34-61.47,0,0-25.5-32.27-99.34-32.27Z"/>
  <g>
    <path class="st0" d="M203.57,168.92c-45.2,0-53.91,47.92-53.91,47.92,111.7,17.7,138.56,18.04,138.56,18.04v-39.41c-72.73-28.66-84.65-26.55-84.65-26.55Z"/>
    <path class="st0" d="M373.05,168.92s-11.92-2.11-84.65,26.55v39.41s26.86-.34,138.56-18.04c0,0-8.71-47.92-53.91-47.92Z"/>
  </g>
  <path class="st0" d="M105.55,267.15s-34.1-11.03-34.1,30.02c0,0-1.43,30.43,27.57,44.93l8.17-19.4s-8.78-27.36-1.63-55.55Z"/>
  <path class="st0" d="M471.69,267.15s34.1-11.03,34.1,30.02c0,0,1.43,30.43-27.57,44.93l-8.17-19.4s8.78-27.36,1.63-55.55Z"/>
  <path class="st1" d="M131.89,325.96s7.35,9.6,29.41,13.07c0,0-25.32,72.7-18.17,139.48,0,0-25.53-22.67-46.97-64.12l35.74-88.42Z"/>
  <path class="st1" d="M445.56,325.96s-7.35,9.6-29.41,13.07c0,0,25.32,72.7,18.17,139.48,0,0,25.53-22.67,46.97-64.12l-35.74-88.42Z"/>
  <path class="st0" d="M134.14,241.42s-.41,1.63,60.04,13.07c0,0-2.04,25.73,18.17,25.73s21.03-18.17,21.03-18.17l23.69,5.51-26.55,51.08-69.23-7.99s-19.81-.2-22.06-21.85-5.11-47.38-5.11-47.38Z"/>
  <path class="st0" d="M442.5,241.42s.41,1.63-60.04,13.07c0,0,2.04,25.73-18.17,25.73s-21.03-18.17-21.03-18.17l-23.69,5.51,26.55,51.08,69.23-7.99s19.81-.2,22.06-21.85c2.25-21.65,5.11-47.38,5.11-47.38Z"/>
  <path class="st2" d="M249.72,352.51s9.39-1.02,18.38,12.46c8.99,13.48,10.01,23.28,8.37,29.82,0,0-4.7-7.15-15.72-9.8-11.03-2.65-20.63-6.33-20.63-18.99s9.6-13.48,9.6-13.48Z"/>
  <path class="st2" d="M326.95,352.51s-9.39-1.02-18.38,12.46-10.01,23.28-8.37,29.82c0,0,4.7-7.15,15.72-9.8s20.63-6.33,20.63-18.99c0-12.66-9.6-13.48-9.6-13.48Z"/>
  <g>
    <path class="st2" d="M636.03,548.78l29.43-349.85h66.64l73.3,223.24c3.7,10.74,7.22,21.2,10.55,31.38,3.33,10.19,6.47,20.46,9.44,30.82h1.11c2.96-10.36,6.11-20.36,9.44-29.99,3.33-9.62,6.85-20.36,10.55-32.21l71.64-223.24h66.64l30.54,349.85h-51.09l-14.44-185.48c-1.48-18.13-2.59-36.28-3.33-54.42-.75-18.13-1.48-36.28-2.22-54.42h-1.11c-4.82,18.14-10,36.29-15.55,54.42-5.55,18.14-11.3,36.29-17.21,54.42l-61.64,185.48h-46.65l-61.64-186.03c-5.93-18.88-11.58-36.93-16.94-54.14-5.37-17.21-10.65-35.26-15.83-54.14h-1.11c-.75,18.14-1.76,36.29-3.05,54.42-1.3,18.14-2.69,36.29-4.17,54.42l-13.33,185.48h-49.98Z"/>
    <path class="st2" d="M1199.12,553.78c-24.07,0-45.63-5.08-64.69-15.27-19.07-10.18-34.15-25.17-45.26-44.98-11.11-19.8-16.66-43.96-16.66-72.47s5.74-54.05,17.21-74.41c11.47-20.36,26.93-35.9,46.37-46.65,19.44-10.73,41.18-16.1,65.25-16.1s45.62,5,64.69,14.99c19.06,10,34.15,24.71,45.26,44.15,11.11,19.44,16.66,43.59,16.66,72.47s-5.74,54.14-17.21,74.69c-11.48,20.55-26.93,36.29-46.37,47.2-19.44,10.92-41.19,16.38-65.25,16.38ZM1200.78,516.02c12.96,0,25.27-2.96,36.93-8.88,11.66-5.92,21.1-16.01,28.32-30.27,7.22-14.25,10.83-33.78,10.83-58.59,0-23.32-3.71-42.01-11.11-56.09-7.41-14.06-17.03-24.34-28.88-30.82-11.85-6.47-24.25-9.72-37.21-9.72s-25.27,2.87-36.93,8.61c-11.66,5.74-21.1,15.55-28.32,29.43s-10.83,33.42-10.83,58.59c0,22.96,3.7,41.65,11.11,56.09,7.4,14.44,17.02,24.99,28.88,31.65,11.84,6.66,24.24,10,37.21,10Z"/>
    <path class="st2" d="M1387.37,548.78v-261h38.32l7.22,36.1c12.95-12.95,26.66-22.85,41.09-29.71,14.44-6.85,30.73-10.27,48.87-10.27,26.66,0,47.57,7.5,62.75,22.49,15.18,14.99,22.77,35.82,22.77,62.47v179.92h-48.87v-172.7c0-15.91-4.17-28.6-12.5-38.04-8.33-9.44-21.01-14.16-38.04-14.16-25.92,0-50.17,11.66-72.75,34.98v189.92h-48.87Z"/>
    <path class="st2" d="M1684.46,548.78V154.51h48.31v245.45l104.96-112.17h60.53l-107.18,109.95,112.17,151.05h-57.75l-86.63-121.61-26.1,26.1v95.51h-48.31Z"/>
    <path class="st2" d="M2053.19,553.78c-24.81,0-47.67-4.72-68.58-14.16-20.92-9.44-37.58-24.06-49.98-43.87-12.41-19.8-18.6-45.44-18.6-76.91,0-27.39,5.28-51.18,15.83-71.36,10.55-20.17,25.45-35.82,44.7-46.92,19.25-11.11,41.83-16.66,67.75-16.66,22.21,0,41.55,4.82,58.03,14.44,16.47,9.63,29.24,22.96,38.32,39.98,9.07,17.03,13.61,37.02,13.61,59.97v25.54h-187.14v2.22c0,28.88,7.86,51.09,23.6,66.64,15.73,15.55,37.11,23.32,64.14,23.32,14.07,0,26.66-1.11,37.76-3.33s22.95-5.92,35.54-11.11l10,36.1c-10.74,4.82-23.51,8.7-38.32,11.66-14.81,2.96-30.36,4.44-46.65,4.44ZM1968.23,389.96l135.5-1.11c0-19.25-4.91-35.63-14.72-49.15-9.81-13.51-25.64-20.27-47.48-20.27-20.36,0-36.93,6.58-49.7,19.71-12.77,13.15-20.64,30.08-23.6,50.81Z"/>
    <path class="st2" d="M2218.13,683.72l-21.1-38.87c17.4-6.66,32.85-16.3,46.37-28.88,13.51-12.59,23.96-29.99,31.38-52.2l5-14.99-106.07-261h52.2l55.53,149.38,18.88,62.2h1.11l18.88-62.2,50.53-149.38h49.98l-100.51,283.21c-11.11,31.46-25.18,56.09-42.2,73.86-17.03,17.77-37.02,30.72-59.97,38.87Z"/>
    <path class="st2" d="M2531.88,553.78c-16.66,0-32.68-1.48-48.03-4.44-15.37-2.96-28.6-7.03-39.71-12.22l11.66-38.32c10.73,5.19,22.4,9.35,34.99,12.49,12.58,3.15,25.35,4.72,38.32,4.72,16.29,0,29.43-2.96,39.43-8.88,10-5.92,14.99-15.73,14.99-29.43,0-11.84-4.26-20.27-12.77-25.27-8.52-5-20.74-9.9-36.65-14.72l-17.21-5.55c-23.7-7.77-41.47-17.58-53.31-29.43-11.85-11.84-17.77-26.84-17.77-44.98,0-22.58,8.97-40.54,26.93-53.87,17.95-13.33,40.44-19.99,67.47-19.99,12.96,0,26.38,1.21,40.26,3.61,13.88,2.41,27.12,6.39,39.71,11.94l-11.11,37.21c-12.22-5.92-23.32-10-33.32-12.22-10-2.22-19.99-3.33-29.99-3.33-17.41,0-30.46,3.25-39.15,9.72-8.7,6.48-13.05,15.09-13.05,25.82,0,7.77,2.96,14.53,8.88,20.27,5.92,5.74,18.33,11.38,37.21,16.94l16.66,5c24.8,7.04,43.59,16.48,56.36,28.32,12.77,11.85,19.16,27.77,19.16,47.76,0,23.7-8.8,42.76-26.38,57.2-17.59,14.44-42.12,21.66-73.58,21.66Z"/>
    <path class="st2" d="M2842.3,553.78c-30.73,0-58.68-6.94-83.85-20.82-25.18-13.88-45.26-34.15-60.25-60.81-14.99-26.66-22.49-59.42-22.49-98.29s7.31-70.61,21.94-97.46c14.62-26.84,34.71-47.29,60.25-61.36,25.54-14.07,54.6-21.1,87.19-21.1,22.95,0,41.83,1.86,56.64,5.55,14.8,3.7,28.5,8.7,41.09,14.99l-12.22,39.98c-13.7-6.29-26.2-10.92-37.48-13.88-11.3-2.96-25.08-4.44-41.37-4.44-21.48,0-41.37,4.63-59.7,13.88-18.33,9.26-33.04,23.97-44.15,44.15-11.11,20.18-16.66,46.92-16.66,80.24s5.36,59.97,16.1,79.97c10.73,19.99,24.89,34.53,42.48,43.59,17.58,9.08,36.93,13.61,58.03,13.61,18.51,0,33.87-1.48,46.09-4.44,12.22-2.96,24.06-7.22,35.54-12.77l11.66,41.09c-12.96,5.93-27.21,10.46-42.76,13.6-15.55,3.14-34.25,4.72-56.09,4.72Z"/>
    <path class="st2" d="M2996.67,548.78l29.43-349.85h66.64l73.3,223.24c3.7,10.74,7.22,21.2,10.55,31.38,3.33,10.19,6.47,20.46,9.44,30.82h1.11c2.96-10.36,6.11-20.36,9.44-29.99,3.33-9.62,6.85-20.36,10.55-32.21l71.64-223.24h66.64l30.54,349.85h-51.09l-14.44-185.48c-1.48-18.13-2.59-36.28-3.33-54.42-.75-18.13-1.48-36.28-2.22-54.42h-1.11c-4.82,18.14-10,36.29-15.55,54.42-5.55,18.14-11.3,36.29-17.21,54.42l-61.64,185.48h-46.65l-61.64-186.03c-5.93-18.88-11.58-36.93-16.94-54.14-5.37-17.21-10.65-35.26-15.83-54.14h-1.11c-.75,18.14-1.76,36.29-3.05,54.42-1.3,18.14-2.69,36.29-4.17,54.42l-13.33,185.48h-49.98Z"/>
    <path class="st2" d="M3546.43,553.78c-17.77,0-35.82-1.67-54.14-5s-36.56-9.07-54.7-17.21l12.22-41.65c30.72,15.18,62.2,22.77,94.4,22.77,19.99,0,37.02-4.62,51.09-13.88,14.06-9.25,21.1-22.95,21.1-41.09,0-13.33-4.54-24.99-13.61-34.98-9.08-10-26.57-19.06-52.48-27.21l-34.98-11.11c-25.18-8.14-44.7-19.34-58.59-33.6-13.88-14.25-20.83-33.22-20.83-56.92,0-30.72,10.18-55.06,30.54-73.02,20.36-17.95,49.61-26.93,87.74-26.93,17.02,0,33.6,1.39,49.7,4.16,16.1,2.78,31.74,7.87,46.92,15.27l-12.22,42.2c-15.92-7.4-30.26-12.68-43.04-15.83-12.77-3.14-25.82-4.72-39.15-4.72-20.74,0-37.3,4.63-49.7,13.88-12.41,9.26-18.6,22.21-18.6,38.87,0,13.7,4.62,24.9,13.88,33.6,9.25,8.7,24.06,16.2,44.43,22.49l34.98,11.11c31.84,10,54.33,23.6,67.47,40.82,13.14,17.21,19.71,36.56,19.71,58.03,0,20.36-5.28,38.04-15.83,53.03-10.55,14.99-24.99,26.57-43.31,34.71-18.33,8.14-39.34,12.22-63.03,12.22Z"/>
  </g>
</svg>